<svg width="397" height="70" viewBox="0 0 397 70" fill="none" xmlns="http://www.w3.org/2000/svg">
<path d="M94.52 30.68C93.4 30.0667 92.2533 29.56 91.08 29.16C89.9333 28.76 88.8533 28.56 87.84 28.56C86.5867 28.56 85.6 28.8133 84.88 29.32C84.16 29.8267 83.8 30.5867 83.8 31.6C83.8 32.2933 84.0667 32.92 84.6 33.48C85.16 34.0133 85.8667 34.4933 86.72 34.92C87.6 35.3467 88.5067 35.7333 89.44 36.08C90.5867 36.5067 91.6933 37.0533 92.76 37.72C93.8267 38.36 94.7067 39.2533 95.4 40.4C96.0933 41.52 96.44 43.0133 96.44 44.88C96.44 46.3733 96.0533 47.76 95.28 49.04C94.5067 50.32 93.3733 51.36 91.88 52.16C90.3867 52.9333 88.5467 53.32 86.36 53.32C84.68 53.32 82.96 53.0667 81.2 52.56C79.4667 52.0533 77.8267 51.2533 76.28 50.16L78.84 45.64C79.8533 46.3867 81.0133 47 82.32 47.48C83.6267 47.96 84.8 48.2 85.84 48.2C86.5333 48.2 87.2267 48.1067 87.92 47.92C88.64 47.7067 89.2267 47.36 89.68 46.88C90.16 46.4 90.4 45.7333 90.4 44.88C90.4 44 89.9733 43.24 89.12 42.6C88.2933 41.9333 87.2933 41.3733 86.12 40.92C85.2133 40.5733 84.28 40.1733 83.32 39.72C82.36 39.2667 81.4533 38.72 80.6 38.08C79.7733 37.4133 79.0933 36.6 78.56 35.64C78.0533 34.6533 77.8 33.4533 77.8 32.04C77.8 30.3333 78.1733 28.8533 78.92 27.6C79.6933 26.3467 80.7733 25.36 82.16 24.64C83.5467 23.8933 85.1467 23.48 86.96 23.4C89.3333 23.4 91.2533 23.68 92.72 24.24C94.2133 24.8 95.5467 25.4667 96.72 26.24L94.52 30.68ZM116.04 51.44C115.267 52.0533 114.294 52.5467 113.12 52.92C111.974 53.2933 110.84 53.48 109.72 53.48C106.734 53.48 104.334 52.6667 102.52 51.04C100.734 49.4133 99.8403 47.1467 99.8403 44.24C99.8403 42.2933 100.28 40.64 101.16 39.28C102.04 37.8933 103.187 36.84 104.6 36.12C106.04 35.4 107.547 35.04 109.12 35.04C110.694 35.04 112.054 35.2533 113.2 35.68C114.374 36.1067 115.374 36.6667 116.2 37.36L113.48 40.96C113.107 40.6667 112.587 40.3733 111.92 40.08C111.28 39.76 110.52 39.6 109.64 39.6C108.494 39.6 107.507 40.04 106.68 40.92C105.854 41.7733 105.44 42.88 105.44 44.24C105.44 45.5467 105.867 46.6533 106.72 47.56C107.6 48.4667 108.76 48.92 110.2 48.92C111.427 48.92 112.44 48.5867 113.24 47.92L116.04 51.44ZM127.701 53.48C126.074 53.48 124.594 53.16 123.261 52.52C121.954 51.8533 120.914 50.84 120.141 49.48C119.368 48.12 118.981 46.3867 118.981 44.28C118.981 42.3067 119.381 40.6 120.181 39.16C120.981 37.72 122.034 36.6133 123.341 35.84C124.648 35.04 126.034 34.64 127.501 34.64C129.234 34.64 130.541 34.92 131.421 35.48C132.328 36.04 133.048 36.6533 133.581 37.32L133.941 35.52H139.141V53H133.541V50.84C133.274 51.1067 132.874 51.4533 132.341 51.88C131.834 52.3067 131.194 52.68 130.421 53C129.648 53.32 128.741 53.48 127.701 53.48ZM129.301 48.92C131.248 48.92 132.661 48.04 133.541 46.28V42C133.221 41.1467 132.661 40.4667 131.861 39.96C131.088 39.4533 130.168 39.2 129.101 39.2C127.901 39.2 126.861 39.6533 125.981 40.56C125.101 41.44 124.661 42.5867 124.661 44C124.661 44.9333 124.874 45.7733 125.301 46.52C125.728 47.2667 126.288 47.8533 126.981 48.28C127.701 48.7067 128.474 48.92 129.301 48.92ZM149.951 35.52L150.391 39.52C150.898 38.5067 151.591 37.64 152.471 36.92C153.351 36.1733 154.218 35.6133 155.071 35.24C155.925 34.84 156.578 34.64 157.031 34.64L156.751 40.24C155.445 40.08 154.325 40.2933 153.391 40.88C152.458 41.4667 151.738 42.24 151.231 43.2C150.725 44.16 150.471 45.1467 150.471 46.16V53H144.911V35.52H149.951ZM161.318 21.44H166.918V53H161.318V21.44ZM181.285 53.48C179.151 53.48 177.338 53.08 175.845 52.28C174.378 51.48 173.258 50.3733 172.485 48.96C171.711 47.5467 171.325 45.92 171.325 44.08C171.325 42.32 171.778 40.7333 172.685 39.32C173.591 37.9067 174.805 36.7867 176.325 35.96C177.845 35.1067 179.538 34.68 181.405 34.68C183.911 34.68 185.965 35.4133 187.565 36.88C189.191 38.32 190.245 40.4133 190.725 43.16L177.925 47.24C178.778 48.2267 179.938 48.72 181.405 48.72C182.018 48.72 182.605 48.6133 183.165 48.4C183.751 48.1867 184.325 47.9067 184.885 47.56L187.365 51.72C186.431 52.2533 185.418 52.68 184.325 53C183.258 53.32 182.245 53.48 181.285 53.48ZM176.845 43.76C176.845 43.8933 176.845 44.0133 176.845 44.12L184.525 41.52C184.285 40.8533 183.898 40.28 183.365 39.8C182.831 39.2933 182.031 39.04 180.965 39.04C179.711 39.04 178.711 39.4667 177.965 40.32C177.218 41.1733 176.845 42.32 176.845 43.76ZM196.434 27.84H202.034V35.44H206.274V39.8H202.034V53H196.434V39.8H193.714V35.44H196.434V27.84ZM212.176 27.84H217.776V35.44H222.016V39.8H217.776V53H212.176V39.8H209.456V35.44H212.176V27.84ZM262.286 50.56C261.966 50.8267 261.366 51.1867 260.486 51.64C259.633 52.0933 258.58 52.4933 257.326 52.84C256.073 53.1867 254.686 53.3467 253.166 53.32C250.846 53.2667 248.766 52.8533 246.926 52.08C245.113 51.28 243.566 50.2 242.286 48.84C241.033 47.48 240.073 45.92 239.406 44.16C238.74 42.4 238.406 40.52 238.406 38.52C238.406 35.5333 239.006 32.8933 240.206 30.6C241.406 28.3067 243.073 26.5067 245.206 25.2C247.366 23.8933 249.873 23.24 252.726 23.24C254.7 23.24 256.446 23.5067 257.966 24.04C259.486 24.5733 260.726 25.1467 261.686 25.76L259.406 31.24C258.74 30.7333 257.846 30.2133 256.726 29.68C255.633 29.12 254.366 28.84 252.926 28.84C251.433 28.84 250.033 29.2533 248.726 30.08C247.446 30.9067 246.406 32.0267 245.606 33.44C244.833 34.8267 244.446 36.4133 244.446 38.2C244.446 40.0933 244.806 41.76 245.526 43.2C246.246 44.6133 247.273 45.72 248.606 46.52C249.94 47.32 251.5 47.72 253.286 47.72C254.86 47.72 256.206 47.4667 257.326 46.96C258.446 46.4533 259.3 45.92 259.886 45.36L262.286 50.56ZM272.817 53.84C271.244 53.84 269.924 53.36 268.857 52.4C267.79 51.4133 267.23 50.1467 267.177 48.6V35.52H272.777V46.52C272.83 47.2933 273.03 47.92 273.377 48.4C273.724 48.8533 274.31 49.08 275.137 49.08C276.39 49.08 277.377 48.48 278.097 47.28C278.817 46.0533 279.177 44.5067 279.177 42.64V35.52H284.777V53H279.697L279.297 50.2C278.71 51.2933 277.87 52.1733 276.777 52.84C275.684 53.5067 274.364 53.84 272.817 53.84ZM290.536 21.44H296.136V53H290.536V21.44ZM301.903 35.52H307.503V53H301.903V35.52ZM301.783 29.32C301.783 28.4933 302.103 27.8133 302.743 27.28C303.41 26.7467 304.117 26.48 304.863 26.48C305.61 26.48 306.29 26.7467 306.903 27.28C307.543 27.8133 307.863 28.4933 307.863 29.32C307.863 30.1467 307.543 30.8267 306.903 31.36C306.29 31.8667 305.61 32.12 304.863 32.12C304.117 32.12 303.41 31.8667 302.743 31.36C302.103 30.8267 301.783 30.1467 301.783 29.32ZM318.351 35.52L318.751 38.32C319.364 37.2267 320.231 36.3467 321.351 35.68C322.471 35.0133 323.831 34.68 325.431 34.68C327.084 34.68 328.457 35.1733 329.551 36.16C330.671 37.12 331.244 38.3733 331.271 39.92V53H325.671V42C325.644 41.2267 325.431 40.6133 325.031 40.16C324.657 39.68 324.017 39.44 323.111 39.44C321.804 39.44 320.764 40.0533 319.991 41.28C319.244 42.48 318.871 44.0133 318.871 45.88V53H313.271V35.52H318.351ZM345.621 53.48C343.487 53.48 341.674 53.08 340.181 52.28C338.714 51.48 337.594 50.3733 336.821 48.96C336.047 47.5467 335.661 45.92 335.661 44.08C335.661 42.32 336.114 40.7333 337.021 39.32C337.927 37.9067 339.141 36.7867 340.661 35.96C342.181 35.1067 343.874 34.68 345.741 34.68C348.247 34.68 350.301 35.4133 351.901 36.88C353.527 38.32 354.581 40.4133 355.061 43.16L342.261 47.24C343.114 48.2267 344.274 48.72 345.741 48.72C346.354 48.72 346.941 48.6133 347.501 48.4C348.087 48.1867 348.661 47.9067 349.221 47.56L351.701 51.72C350.767 52.2533 349.754 52.68 348.661 53C347.594 53.32 346.581 53.48 345.621 53.48ZM341.181 43.76C341.181 43.8933 341.181 44.0133 341.181 44.12L348.861 41.52C348.621 40.8533 348.234 40.28 347.701 39.8C347.167 39.2933 346.367 39.04 345.301 39.04C344.047 39.04 343.047 39.4667 342.301 40.32C341.554 41.1733 341.181 42.32 341.181 43.76ZM364.17 35.52L364.61 39.52C365.117 38.5067 365.81 37.64 366.69 36.92C367.57 36.1733 368.437 35.6133 369.29 35.24C370.143 34.84 370.797 34.64 371.25 34.64L370.97 40.24C369.663 40.08 368.543 40.2933 367.61 40.88C366.677 41.4667 365.957 42.24 365.45 43.2C364.943 44.16 364.69 45.1467 364.69 46.16V53H359.13V35.52H364.17ZM376.936 61.4L381.136 52.08L373.056 35.52H379.336L383.936 45.84L388.576 35.52H393.616L382.336 61.4H376.936Z" fill="white"/>
<path d="M8.16589 6.58599C-2.68411 16.54 -2.68411 17.172 8.31871 28.548C17.0293 37.554 18.7103 38.66 24.2117 38.66C29.5602 38.818 30.9356 39.608 35.6729 45.928C38.5764 49.878 44.6891 56.672 49.1208 60.938C55.3863 67.1 57.9842 68.838 61.3461 68.364C69.7511 67.416 67.4588 62.676 51.1074 46.56C37.3539 32.972 35.6729 30.602 35.6729 25.862C35.6729 21.28 34.1448 18.752 26.0455 10.536C20.8497 5.16399 15.9595 0.739991 15.3483 0.739991C14.737 0.739991 11.5279 3.26799 8.16589 6.58599ZM22.6835 16.54C25.8926 20.016 28.1849 23.334 27.5736 23.966C26.3511 25.072 14.2786 13.696 14.2786 11.484C14.2786 8.79799 16.8764 10.378 22.6835 16.54ZM16.5708 22.86C19.78 26.336 22.0722 29.654 21.461 30.286C20.2384 31.392 8.16589 20.016 8.16589 17.804C8.16589 15.118 10.7638 16.698 16.5708 22.86Z" fill="#EAA023"/>
<path d="M51.2602 13.854C39.9518 25.546 38.118 30.128 42.7025 34.078C50.1905 40.398 68.8342 14.328 63.6384 4.69C62.5687 2.794 60.1236 4.69 51.2602 13.854Z" fill="#EAA023"/>
<path d="M22.9891 43.084C19.9328 43.4 16.2652 46.718 9.69407 54.934C1.90041 64.73 0.983507 66.626 2.81731 68.522C4.65111 70.418 5.87365 70.26 11.0694 66.626C18.099 61.728 30.63 45.454 28.6434 43.716C27.8793 43.084 25.2814 42.768 22.9891 43.084Z" fill="#EAA023"/>
</svg>
