<svg width="292" height="39" viewBox="0 0 292 39" fill="none" xmlns="http://www.w3.org/2000/svg">
<path d="M6.92 31.32C5.72 31.32 4.56 31.12 3.44 30.72C2.34667 30.2933 1.44 29.6667 0.72 28.84L2.32 26.68C2.98667 27.3467 3.69333 27.8533 4.44 28.2C5.18667 28.52 5.90667 28.68 6.6 28.68C7.4 28.68 8.09333 28.52 8.68 28.2C9.29333 27.88 9.6 27.3333 9.6 26.56C9.6 25.9733 9.4 25.5067 9 25.16C8.62667 24.8133 8.13333 24.5467 7.52 24.36C6.93333 24.1467 6.32 23.9333 5.68 23.72C2.85333 22.8133 1.44 21.2 1.44 18.88C1.44 18.0267 1.65333 17.2133 2.08 16.44C2.53333 15.6667 3.18667 15.04 4.04 14.56C4.92 14.08 6 13.84 7.28 13.84C8.42667 13.84 9.45333 13.9867 10.36 14.28C11.2667 14.5733 12.12 15.04 12.92 15.68L11.44 17.96C10.96 17.48 10.3867 17.12 9.72 16.88C9.08 16.6133 8.49333 16.4667 7.96 16.44C7.24 16.44 6.6 16.6133 6.04 16.96C5.50667 17.3067 5.24 17.7867 5.24 18.4C5.21333 18.96 5.38667 19.4133 5.76 19.76C6.13333 20.08 6.61333 20.3467 7.2 20.56C7.81333 20.7733 8.42667 20.9733 9.04 21.16C10.24 21.56 11.2533 22.1067 12.08 22.8C12.9333 23.4933 13.36 24.5067 13.36 25.84C13.36 27.3333 12.8267 28.6267 11.76 29.72C10.6933 30.7867 9.08 31.32 6.92 31.32ZM32.0081 29.44C31.2615 30.0533 30.3681 30.5333 29.3281 30.88C28.2881 31.2267 27.2481 31.4 26.2081 31.4C24.4215 31.4 22.8348 31.04 21.4481 30.32C20.0881 29.6 19.0215 28.5867 18.2481 27.28C17.5015 25.9733 17.1281 24.44 17.1281 22.68C17.1281 20.92 17.5281 19.4 18.3281 18.12C19.1548 16.8133 20.2215 15.8 21.5281 15.08C22.8615 14.36 24.3015 14 25.8481 14C27.1815 14 28.3681 14.1867 29.4081 14.56C30.4481 14.9333 31.3548 15.44 32.1281 16.08L30.2481 18.52C29.7681 18.1733 29.1815 17.8533 28.4881 17.56C27.7948 17.24 27.0215 17.08 26.1681 17.08C25.1815 17.08 24.2881 17.3333 23.4881 17.84C22.6881 18.32 22.0481 18.9867 21.5681 19.84C21.0881 20.6667 20.8481 21.6133 20.8481 22.68C20.8481 23.72 21.0881 24.6667 21.5681 25.52C22.0481 26.3733 22.7148 27.0533 23.5681 27.56C24.4215 28.0667 25.4081 28.32 26.5281 28.32C27.2215 28.32 27.8615 28.2133 28.4481 28C29.0615 27.7867 29.6081 27.4933 30.0881 27.12L32.0081 29.44ZM43.7303 31.4C42.157 31.4 40.7303 31.0667 39.4503 30.4C38.197 29.7333 37.197 28.76 36.4503 27.48C35.7303 26.1733 35.3703 24.5867 35.3703 22.72C35.3703 20.8533 35.7436 19.2533 36.4903 17.92C37.2636 16.5867 38.2903 15.56 39.5703 14.84C40.877 14.12 42.3036 13.76 43.8503 13.76C45.3436 13.76 46.6103 14.08 47.6503 14.72C48.6903 15.36 49.5036 16.1333 50.0903 17.04L50.3703 14.44H53.8103V31H50.0903V28.28C49.7703 28.7067 49.3036 29.16 48.6903 29.64C48.1036 30.12 47.3836 30.5333 46.5303 30.88C45.7036 31.2267 44.7703 31.4 43.7303 31.4ZM44.7303 28.32C46.0903 28.32 47.2503 27.9467 48.2103 27.2C49.1703 26.4267 49.797 25.3867 50.0903 24.08V20.8C49.7703 19.6533 49.1036 18.7067 48.0903 17.96C47.077 17.2133 45.917 16.84 44.6103 16.84C43.597 16.84 42.677 17.08 41.8503 17.56C41.0236 18.04 40.357 18.7067 39.8503 19.56C39.3703 20.4133 39.1303 21.4 39.1303 22.52C39.1303 23.6133 39.3836 24.6 39.8903 25.48C40.397 26.3333 41.077 27.0267 41.9303 27.56C42.7836 28.0667 43.717 28.32 44.7303 28.32ZM63.6069 14.44L63.8869 18.32C64.3402 17.3867 64.9669 16.5867 65.7669 15.92C66.5669 15.2267 67.3935 14.7067 68.2469 14.36C69.1269 13.9867 69.8869 13.7867 70.5269 13.76L70.3669 17.48C69.1135 17.4267 68.0069 17.68 67.0469 18.24C66.0869 18.7733 65.3402 19.5067 64.8069 20.44C64.2735 21.3733 64.0069 22.3733 64.0069 23.44V31H60.2869V14.44H63.6069ZM75.3259 -1.43051e-06H79.0459V31H75.3259V-1.43051e-06ZM93.2013 31.4C91.3346 31.4 89.7079 31.0267 88.3213 30.28C86.9613 29.5067 85.9079 28.4533 85.1613 27.12C84.4413 25.7867 84.0813 24.28 84.0813 22.6C84.0813 20.9733 84.4813 19.4933 85.2813 18.16C86.1079 16.8 87.2146 15.7333 88.6013 14.96C90.0146 14.16 91.5746 13.76 93.2813 13.76C95.4679 13.76 97.2813 14.4 98.7213 15.68C100.161 16.96 101.148 18.72 101.681 20.96L88.5613 25.56C89.0146 26.3867 89.6546 27.04 90.4813 27.52C91.3079 27.9733 92.2413 28.2 93.2813 28.2C94.0279 28.2 94.7346 28.0667 95.4013 27.8C96.0679 27.5333 96.7079 27.1867 97.3213 26.76L99.0413 29.52C98.1879 30.08 97.2413 30.5333 96.2013 30.88C95.1879 31.2267 94.1879 31.4 93.2013 31.4ZM87.7613 22.4C87.7346 22.72 87.7479 23.0267 87.8013 23.32L97.4413 19.76C97.0679 18.96 96.5213 18.2533 95.8013 17.64C95.1079 17.0267 94.1746 16.72 93.0013 16.72C91.4813 16.72 90.2279 17.2533 89.2413 18.32C88.2546 19.3867 87.7613 20.7467 87.7613 22.4ZM107.903 7.16H111.663V14.48H116.183V17.44H111.663V31H107.903V17.44H104.863V14.48H107.903V7.16ZM122.317 7.16H126.077V14.48H130.597V17.44H126.077V31H122.317V17.44H119.277V14.48H122.317V7.16ZM169.947 28.84C169.467 29.16 168.814 29.52 167.987 29.92C167.16 30.32 166.187 30.6667 165.067 30.96C163.974 31.2267 162.774 31.3467 161.467 31.32C159.2 31.2933 157.174 30.8933 155.387 30.12C153.6 29.3467 152.067 28.2933 150.787 26.96C149.534 25.6 148.574 24.0533 147.907 22.32C147.24 20.5867 146.907 18.7333 146.907 16.76C146.907 14.6 147.254 12.6133 147.947 10.8C148.667 8.96 149.667 7.37333 150.947 6.04C152.227 4.68 153.734 3.62667 155.467 2.88C157.227 2.13333 159.147 1.76 161.227 1.76C162.96 1.76 164.534 2 165.947 2.48C167.36 2.93333 168.574 3.46667 169.587 4.08L168.027 7.72C167.227 7.18666 166.254 6.68 165.107 6.2C163.96 5.72 162.707 5.48 161.347 5.48C159.934 5.48 158.6 5.77333 157.347 6.36C156.094 6.92 154.987 7.70667 154.027 8.72C153.067 9.70667 152.307 10.88 151.747 12.24C151.214 13.5733 150.947 15.0133 150.947 16.56C150.947 18.64 151.374 20.52 152.227 22.2C153.107 23.8533 154.334 25.16 155.907 26.12C157.507 27.08 159.374 27.56 161.507 27.56C163 27.56 164.307 27.3467 165.427 26.92C166.574 26.4667 167.52 25.9467 168.267 25.36L169.947 28.84ZM180.84 31.64C179.32 31.64 178.067 31.1867 177.08 30.28C176.094 29.3467 175.587 28.1467 175.56 26.68V14.44H179.28V25.36C179.334 26.2667 179.6 27 180.08 27.56C180.56 28.12 181.307 28.4133 182.32 28.44C183.227 28.44 184.054 28.1733 184.8 27.64C185.547 27.08 186.134 26.3333 186.56 25.4C187.014 24.44 187.24 23.36 187.24 22.16V14.44H190.96V31H187.6L187.32 27.88C186.787 28.9733 185.934 29.88 184.76 30.6C183.614 31.2933 182.307 31.64 180.84 31.64ZM197.435 -1.43051e-06H201.155V31H197.435V-1.43051e-06ZM207.631 14.44H211.351V31H207.631V14.44ZM207.351 8.48C207.351 7.86667 207.577 7.37333 208.031 7C208.511 6.6 209.031 6.4 209.591 6.4C210.151 6.4 210.657 6.6 211.111 7C211.564 7.37333 211.791 7.86667 211.791 8.48C211.791 9.09333 211.564 9.6 211.111 10C210.657 10.3733 210.151 10.56 209.591 10.56C209.031 10.56 208.511 10.3733 208.031 10C207.577 9.6 207.351 9.09333 207.351 8.48ZM221.186 14.44L221.426 17.64C221.986 16.4667 222.853 15.5333 224.026 14.84C225.199 14.1467 226.559 13.8 228.106 13.8C229.653 13.8 230.919 14.2667 231.906 15.2C232.919 16.1067 233.453 17.2933 233.506 18.76V31H229.746V20.04C229.693 19.16 229.413 18.44 228.906 17.88C228.426 17.32 227.666 17.0267 226.626 17C225.186 17 223.973 17.5867 222.986 18.76C222.026 19.9067 221.546 21.4 221.546 23.24V31H217.826V14.44H221.186ZM247.615 31.4C245.749 31.4 244.122 31.0267 242.735 30.28C241.375 29.5067 240.322 28.4533 239.575 27.12C238.855 25.7867 238.495 24.28 238.495 22.6C238.495 20.9733 238.895 19.4933 239.695 18.16C240.522 16.8 241.629 15.7333 243.015 14.96C244.429 14.16 245.989 13.76 247.695 13.76C249.882 13.76 251.695 14.4 253.135 15.68C254.575 16.96 255.562 18.72 256.095 20.96L242.975 25.56C243.429 26.3867 244.069 27.04 244.895 27.52C245.722 27.9733 246.655 28.2 247.695 28.2C248.442 28.2 249.149 28.0667 249.815 27.8C250.482 27.5333 251.122 27.1867 251.735 26.76L253.455 29.52C252.602 30.08 251.655 30.5333 250.615 30.88C249.602 31.2267 248.602 31.4 247.615 31.4ZM242.175 22.4C242.149 22.72 242.162 23.0267 242.215 23.32L251.855 19.76C251.482 18.96 250.935 18.2533 250.215 17.64C249.522 17.0267 248.589 16.72 247.415 16.72C245.895 16.72 244.642 17.2533 243.655 18.32C242.669 19.3867 242.175 20.7467 242.175 22.4ZM264.037 14.44L264.317 18.32C264.77 17.3867 265.397 16.5867 266.197 15.92C266.997 15.2267 267.823 14.7067 268.677 14.36C269.557 13.9867 270.317 13.7867 270.957 13.76L270.797 17.48C269.543 17.4267 268.437 17.68 267.477 18.24C266.517 18.7733 265.77 19.5067 265.237 20.44C264.703 21.3733 264.437 22.3733 264.437 23.44V31H260.717V14.44H264.037ZM277.156 38.96L280.956 30.48L273.276 14.44H277.476L282.796 26.24L288.076 14.44H291.516L280.836 38.96H277.156Z" fill="white"/>
</svg>
